<?xml version="1.0" standalone="no"?>
<!DOCTYPE svg PUBLIC "-//W3C//DTD SVG 1.1//EN" "http://www.w3.org/Graphics/SVG/1.1/DTD/svg11.dtd">
<svg width="113mm" height="92mm" viewBox="76 43 113 92" xmlns="http://www.w3.org/2000/svg" version="1.1">
<title>OpenSCAD Model</title>
<path d="
M 174.843,134.111 L 175.031,134.089 L 175.215,134.047 L 175.393,133.985 L 175.564,133.905 L 175.725,133.806
 L 175.852,133.709 L 188.314,112.041 L 188.22,54.3749 L 188.212,54.2375 L 188.201,54.1718 L 188.182,54.1075
 L 188.157,54.0459 L 188.124,53.9875 L 188.086,53.933 L 188.041,53.8831 L 187.991,53.8388 L 187.937,53.8
 L 187.878,53.7677 L 187.817,53.7423 L 187.752,53.7238 L 187.686,53.7126 L 187.55,53.705 L 168.394,53.7145
 L 168.272,53.7115 L 168.149,53.7026 L 168.028,53.6876 L 167.907,53.6667 L 167.787,53.6399 L 167.669,53.6072
 L 167.552,53.5688 L 167.438,53.5247 L 167.325,53.475 L 167.216,53.4199 L 167.109,53.3595 L 167.005,53.2939
 L 166.905,53.2233 L 166.852,53.1833 L 166.704,53.0668 L 166.652,53.0345 L 166.597,53.0073 L 166.54,52.986
 L 166.481,52.9706 L 166.421,52.9613 L 166.296,52.955 L 151.336,52.9673 L 151.214,52.9644 L 151.091,52.9555
 L 150.969,52.9406 L 150.849,52.9197 L 150.729,52.8929 L 150.61,52.8603 L 150.494,52.8219 L 150.379,52.7778
 L 150.267,52.7282 L 150.158,52.6731 L 150.051,52.6127 L 149.947,52.5471 L 149.847,52.4766 L 149.75,52.4012
 L 149.657,52.3211 L 149.568,52.2365 L 149.483,52.1478 L 149.403,52.0549 L 149.327,51.9582 L 149.257,51.858
 L 149.191,51.7543 L 149.13,51.6476 L 149.075,51.5381 L 149.025,51.4259 L 148.981,51.3115 L 148.942,51.195
 L 148.911,51.0814 L 148.863,50.8921 L 148.841,50.8331 L 148.813,50.7765 L 148.779,50.7232 L 148.74,50.674
 L 148.696,50.6289 L 148.647,50.589 L 148.595,50.5543 L 148.539,50.5253 L 148.48,50.5025 L 148.419,50.4859
 L 148.357,50.4759 L 148.228,50.4689 L 133.408,50.4553 L 133.285,50.4522 L 133.163,50.4431 L 133.041,50.4279
 L 132.92,50.4068 L 132.8,50.3798 L 132.682,50.347 L 132.566,50.3084 L 132.451,50.2641 L 132.339,50.2143
 L 132.229,50.159 L 132.123,50.0985 L 132.019,50.0327 L 131.919,49.962 L 131.822,49.8864 L 131.729,49.8062
 L 131.641,49.7215 L 131.556,49.6325 L 131.476,49.5395 L 131.401,49.4427 L 131.33,49.3423 L 131.264,49.2386
 L 131.204,49.1318 L 131.149,49.0221 L 131.099,48.9099 L 131.055,48.7954 L 131.017,48.6788 L 130.984,48.5605
 L 130.958,48.4408 L 130.937,48.3199 L 130.922,48.1981 L 130.913,48.0757 L 130.91,47.9553 L 130.91,44.6064
 L 130.902,44.4694 L 130.891,44.4036 L 130.873,44.3392 L 130.847,44.2774 L 130.815,44.2189 L 130.776,44.1644
 L 130.731,44.1145 L 130.681,44.07 L 130.627,44.0313 L 130.568,43.999 L 130.506,43.9734 L 130.442,43.955
 L 130.376,43.9438 L 130.239,43.9363 L 113.599,43.9495 L 113.463,43.9573 L 113.397,43.9686 L 113.332,43.9872
 L 113.271,44.0129 L 113.212,44.0453 L 113.158,44.0842 L 113.108,44.1288 L 113.063,44.1788 L 113.025,44.2334
 L 112.992,44.2921 L 112.967,44.354 L 112.949,44.4184 L 112.938,44.4843 L 112.93,44.6203 L 112.94,47.3982
 L 112.937,47.5209 L 112.929,47.6433 L 112.914,47.7651 L 112.893,47.8861 L 112.867,48.0059 L 112.835,48.1243
 L 112.797,48.2409 L 112.753,48.3555 L 112.704,48.4679 L 112.649,48.5777 L 112.589,48.6847 L 112.523,48.7885
 L 112.453,48.8891 L 112.378,48.9861 L 112.298,49.0793 L 112.214,49.1685 L 112.125,49.2534 L 112.033,49.3338
 L 111.936,49.4097 L 111.836,49.4807 L 111.733,49.5467 L 111.626,49.6075 L 111.517,49.6631 L 111.405,49.7132
 L 111.29,49.7578 L 111.174,49.7966 L 111.056,49.8298 L 110.936,49.8571 L 110.815,49.8785 L 110.693,49.8939
 L 110.571,49.9034 L 110.44,49.9068 L 95.5872,49.9068 L 95.4503,49.9145 L 95.3844,49.9257 L 95.32,49.9443
 L 95.2582,49.9699 L 95.1996,50.0024 L 95.1452,50.041 L 95.0952,50.0858 L 95.0507,50.1357 L 95.0121,50.1903
 L 94.9798,50.2489 L 94.9542,50.3109 L 94.9358,50.375 L 94.9247,50.4412 L 94.9173,50.5775 L 94.9397,59.4
 L 94.937,59.5227 L 94.9283,59.6451 L 94.9136,59.7669 L 94.8929,59.8878 L 94.8663,60.0076 L 94.8339,60.126
 L 94.7957,60.2426 L 94.7518,60.3572 L 94.7024,60.4695 L 94.6475,60.5792 L 94.5873,60.6862 L 94.5219,60.79
 L 94.4515,60.8905 L 94.3763,60.9874 L 94.2964,61.0805 L 94.212,61.1696 L 94.1233,61.2545 L 94.0306,61.3349
 L 93.9341,61.4106 L 93.8339,61.4815 L 93.7304,61.5474 L 93.6238,61.6082 L 93.5144,61.6636 L 93.4023,61.7136
 L 93.2879,61.7581 L 93.1715,61.7969 L 93.0533,61.8299 L 92.9337,61.8571 L 92.8128,61.8784 L 92.6911,61.8937
 L 92.5687,61.903 L 92.4347,61.9064 L 77.4913,61.8761 L 77.3585,61.8833 L 77.2971,61.8936 L 77.2375,61.9106
 L 77.1802,61.9342 L 77.1255,61.9643 L 77.0749,62.0001 L 77.0284,62.0415 L 76.9871,62.0877 L 76.951,62.1384
 L 76.9209,62.1929 L 76.8971,62.2502 L 76.8799,62.3099 L 76.8694,62.3711 L 76.862,62.5034 L 76.862,71.6282
 L 76.9127,76.6958 L 76.9128,76.7208 L 76.9128,112.045 L 76.9215,112.2 L 76.9357,112.284 L 76.9592,112.366
 L 76.9916,112.444 L 77.0327,112.518 L 77.0818,112.587 L 77.1383,112.65 L 77.2016,112.707 L 77.2708,112.756
 L 77.345,112.797 L 77.4234,112.83 L 77.5048,112.853 L 77.5886,112.867 L 77.7432,112.876 L 94.0624,112.876
 L 94.217,112.867 L 94.3008,112.853 L 94.3822,112.83 L 94.4606,112.797 L 94.5348,112.756 L 94.604,112.707
 L 94.6673,112.65 L 94.7238,112.587 L 94.7729,112.518 L 94.8139,112.444 L 94.8464,112.365 L 94.8699,112.284
 L 94.8841,112.2 L 94.8928,112.046 L 94.8928,110.757 L 94.8929,110.732 L 94.9436,105.563 L 94.9436,103.463
 L 94.9466,103.34 L 94.9556,103.218 L 94.9707,103.096 L 94.9916,102.975 L 95.0185,102.855 L 95.0513,102.737
 L 95.0897,102.62 L 95.1339,102.506 L 95.1836,102.394 L 95.2388,102.284 L 95.2993,102.177 L 95.3649,102.074
 L 95.4356,101.973 L 95.5111,101.877 L 95.5912,101.784 L 95.6758,101.695 L 95.7647,101.61 L 95.8576,101.53
 L 95.9544,101.455 L 96.0547,101.384 L 96.1583,101.318 L 96.2651,101.258 L 96.3747,101.203 L 96.4869,101.153
 L 96.6014,101.109 L 96.7179,101.07 L 96.8362,101.038 L 96.9559,101.011 L 97.0768,100.99 L 97.1986,100.975
 L 97.3209,100.966 L 97.4436,100.963 L 111.557,100.963 L 111.679,100.966 L 111.802,100.975 L 111.923,100.99
 L 112.044,101.011 L 112.164,101.038 L 112.282,101.07 L 112.399,101.109 L 112.513,101.153 L 112.625,101.203
 L 112.735,101.258 L 112.842,101.318 L 112.945,101.384 L 113.046,101.455 L 113.143,101.53 L 113.235,101.61
 L 113.324,101.695 L 113.409,101.784 L 113.489,101.877 L 113.565,101.973 L 113.635,102.074 L 113.708,102.189
 L 124.935,121.162 L 124.971,121.196 L 125.025,121.236 L 125.073,121.264 L 125.095,121.276 L 125.117,121.286
 L 125.169,121.306 L 125.233,121.323 L 125.299,121.334 L 125.437,121.341 L 142.808,121.359 L 142.93,121.362
 L 143.053,121.372 L 143.174,121.387 L 143.295,121.408 L 143.463,121.447 L 160.126,125.992 L 160.244,126.027
 L 160.359,126.068 L 160.473,126.115 L 160.584,126.167 L 160.719,126.239 L 174.229,134.041 L 174.282,134.057
 L 174.466,134.096 L 174.654,134.114 z
" stroke="black" fill="lightgray" stroke-width="0.5"/>
</svg>
