<?xml version="1.0" standalone="no"?>
 <!DOCTYPE svg PUBLIC "-//W3C//DTD SVG 1.1//EN" 
 "http://www.w3.org/Graphics/SVG/1.1/DTD/svg11.dtd"> 
<svg
  xmlns:svg="http://www.w3.org/2000/svg"
  xmlns="http://www.w3.org/2000/svg"
  xmlns:xlink="http://www.w3.org/1999/xlink"
  version="1.1"
  width="148.0312mm" height="121.2342mm" viewBox="0.0000 0.0000 148.0312 121.2342">
<title>SVG Image created as temper-topplate-brd.svg date 2025/12/25 22:23:30 </title>
  <desc>Image generated by PCBNEW </desc>
<g style="fill:#000000; fill-opacity:1.0000;stroke:#000000; stroke-opacity:1.0000;
stroke-linecap:round; stroke-linejoin:round;"
 transform="translate(0 0) scale(1 1)">
<path style="fill:#000000; fill-opacity:1.0000; stroke:none;fill-rule:evenodd;"
d="M 75.5015,11.5267
75.5481,11.5804
75.5595,11.6328
75.5595,17.1109
75.5899,17.2833
75.5899,17.2833
75.6498,17.4478
75.6498,17.4478
75.6498,17.4478
75.7373,17.5995
75.7373,17.5995
75.7373,17.5995
75.7709,17.6394
75.8498,17.7336
75.9839,17.8461
76.1356,17.9336
76.3001,17.9935
76.4725,18.0239
76.4725,18.0239
76.5600,18.0239
93.4168,18.0394
93.4849,18.0595
93.5314,18.1132
93.5427,18.1654
93.5427,19.4654
93.5427,19.4655
93.5427,19.4868
93.5427,19.4869
93.5427,19.6266
93.5427,19.6266
93.5731,19.7990
93.6330,19.9635
93.6330,19.9635
93.7205,20.1151
93.8330,20.2492
93.9671,20.3617
93.9671,20.3617
93.9671,20.3617
94.1188,20.4492
94.1188,20.4492
94.1188,20.4492
94.2833,20.5091
94.4557,20.5395
94.4691,20.5395
94.4700,20.5396
94.4777,20.5396
94.4777,20.5396
94.5435,20.5395
94.6091,20.5395
94.6170,20.5395
94.6179,20.5395
111.4835,20.5256
111.5517,20.5455
111.5982,20.5992
111.6097,20.6515
111.6395,65.6701
111.6384,65.6862
111.6352,65.7116
111.6352,65.7116
111.6384,65.7354
111.6395,65.7522
111.6395,65.7762
111.6395,65.7762
111.6462,65.8010
111.6494,65.8168
111.6528,65.8422
111.6621,65.8644
111.6675,65.8803
111.6737,65.9035
111.6737,65.9035
111.6865,65.9256
111.6937,65.9400
111.7157,65.9927
111.8193,66.1571
111.9488,66.3022
112.0627,66.3935
112.1004,66.4238
112.2701,66.5186
112.2701,66.5186
112.2701,66.5186
112.3089,66.5324
112.3291,66.5418
124.9554,73.7919
132.9587,78.3875
132.9695,78.3955
132.9700,78.3949
132.9767,78.3997
132.9767,78.3997
133.0241,78.4252
133.0441,78.4385
133.0623,78.4533
133.0929,78.4899
133.0983,78.4997
133.1131,78.5451
133.1145,78.5562
133.1114,78.6038
133.1081,78.6164
133.0954,78.6474
120.6546,100.2530
120.6160,100.2944
120.5628,100.3305
120.5456,100.3402
120.3982,100.4093
120.3797,100.4163
120.2234,100.4615
120.2040,100.4655
120.0425,100.4858
120.0228,100.4867
119.8601,100.4815
119.8405,100.4793
119.7407,100.4602
119.7013,100.4456
105.9787,92.5212
105.9782,92.5210
105.9224,92.4885
105.9217,92.4881
105.9212,92.4879
105.9205,92.4876
105.8579,92.4709
105.8574,92.4707
88.6074,87.7662
88.6039,87.7650
88.5981,87.7634
88.5981,87.7634
88.5355,87.7466
88.5351,87.7465
88.4725,87.7294
88.4720,87.7293
88.4716,87.7293
88.4709,87.7292
88.4062,87.7291
88.4058,87.7291
88.3803,87.7290
88.3407,87.7288
88.3407,87.7288
88.3348,87.7288
88.3310,87.7290
70.7050,87.7104
70.6369,87.6903
70.5967,87.6486
70.5058,87.4949
90.3588,87.4949
90.3888,87.6072
90.3929,87.6222
90.4588,87.7363
90.4588,87.7364
90.4588,87.7364
90.5519,87.8295
90.6661,87.8954
103.7499,91.4012
103.9897,91.4655
103.9897,91.4655
103.9958,91.4671
103.9959,91.4671
104.1231,91.5012
104.1231,91.5012
104.2549,91.5012
104.2549,91.5012
104.2549,91.5012
104.3822,91.4671
104.3822,91.4671
104.3822,91.4671
104.4393,91.4342
104.4964,91.4012
104.5895,91.3081
104.6554,91.1939
104.6895,91.0666
105.4171,88.3515
109.9839,88.3515
109.9939,88.3888
110.0180,88.4788
110.0180,88.4788
110.0839,88.5929
110.0839,88.5929
110.1771,88.6861
110.1771,88.6861
110.1771,88.6861
110.1928,88.6951
110.1928,88.6951
110.1928,88.6951
122.1211,95.5819
122.1211,95.5819
122.1283,95.5861
122.1283,95.5861
122.1283,95.5861
122.2424,95.6520
122.2693,95.6592
122.3697,95.6861
122.5015,95.6861
122.6288,95.6520
122.7429,95.5861
122.8361,95.4929
122.9020,95.3788
122.9020,95.3788
129.7361,83.5417
129.8020,83.4276
129.8361,83.3003
129.8361,83.1685
129.8020,83.0412
129.8020,83.0412
129.7361,82.9271
129.6429,82.8339
129.5288,82.7680
129.5288,82.7680
129.5271,82.7671
129.5271,82.7671
117.5776,75.8680
117.4503,75.8339
117.4503,75.8339
117.3185,75.8339
117.2337,75.8567
117.1912,75.8680
117.0771,75.9339
117.0771,75.9339
116.9839,76.0271
116.9839,76.0271
116.9222,76.1341
116.9222,76.1341
110.0180,88.0924
110.0180,88.0924
109.9839,88.2197
109.9839,88.3515
105.4171,88.3515
108.2612,77.7369
108.2612,77.6818
108.2612,77.6051
108.2309,77.4918
108.2271,77.4778
108.1612,77.3636
108.1612,77.3636
108.1612,77.3636
108.0681,77.2705
108.0681,77.2705
107.9539,77.2046
103.9588,76.1341
94.6242,73.6329
94.6241,73.6329
94.6241,73.6329
94.5651,73.6170
94.4969,73.5988
94.4969,73.5988
94.3651,73.5988
94.2647,73.6257
94.2647,73.6257
94.2539,73.6285
94.2378,73.6329
94.1237,73.6988
94.1236,73.6988
94.0305,73.7919
94.0305,73.7919
93.9646,73.9061
92.5975,79.0079
90.3929,87.2358
90.3929,87.2359
90.3588,87.3631
90.3588,87.4949
70.5058,87.4949
70.3119,87.1673
70.1691,86.9259
71.8595,86.9259
71.8845,87.0191
71.8936,87.0532
71.8936,87.0532
71.9595,87.1673
71.9595,87.1673
72.0527,87.2605
72.0527,87.2605
72.0527,87.2605
72.1668,87.3264
72.2941,87.3605
72.2941,87.3605
86.2259,87.3605
86.2259,87.3605
86.3532,87.3264
86.4673,87.2605
86.5605,87.1673
86.6264,87.0532
86.6605,86.9259
86.6605,72.9941
86.6264,72.8668
86.5605,72.7527
86.5605,72.7527
86.5605,72.7527
86.4673,72.6595
86.4673,72.6595
86.3532,72.5936
86.3532,72.5936
86.3532,72.5936
86.3532,72.5936
86.3532,72.5936
86.3191,72.5845
86.2259,72.5595
72.4259,72.5595
72.2941,72.5595
72.2259,72.5778
72.1668,72.5936
72.1668,72.5936
72.0527,72.6595
72.0527,72.6595
71.9595,72.7527
71.9595,72.7527
71.8936,72.8668
71.8936,72.8668
71.8595,72.9941
71.8595,86.9259
70.1691,86.9259
59.7602,69.3359
95.7595,69.3359
95.7845,69.4291
95.7936,69.4632
95.7936,69.4632
95.8595,69.5773
95.8595,69.5773
95.9527,69.6705
95.9527,69.6705
95.9527,69.6705
96.0668,69.7364
96.1941,69.7705
96.1941,69.7705
110.1259,69.7705
110.1259,69.7705
110.2532,69.7364
110.3673,69.6705
110.4605,69.5773
110.5264,69.4632
110.5605,69.3359
110.5605,55.4041
110.5264,55.2768
110.4605,55.1627
110.4605,55.1627
110.4605,55.1627
110.3673,55.0695
110.3673,55.0695
110.2532,55.0036
110.2532,55.0036
110.2532,55.0036
110.2532,55.0036
110.2532,55.0036
110.2191,54.9945
110.1259,54.9695
96.3259,54.9695
96.1941,54.9695
96.1259,54.9878
96.0668,55.0036
96.0668,55.0036
95.9527,55.0695
95.9527,55.0695
95.8595,55.1627
95.8595,55.1627
95.7936,55.2768
95.7936,55.2768
95.7595,55.4041
95.7595,69.3359
59.7602,69.3359
58.9929,68.0393
58.9866,68.0272
58.9613,67.9713
58.9586,67.9654
58.8458,67.7969
58.7070,67.6490
58.7070,67.6490
58.5461,67.5257
58.5461,67.5257
58.3671,67.4302
58.1751,67.3651
58.1751,67.3651
58.1751,67.3651
58.0946,67.3518
57.9750,67.3321
57.8736,67.3322
40.6294,67.3322
40.6287,67.3322
40.6061,67.3322
40.5540,67.3414
40.4148,67.3659
40.4148,67.3659
40.2323,67.4324
40.2323,67.4324
40.0641,67.5295
39.9153,67.6543
39.7904,67.8031
39.6933,67.9713
39.6268,68.1538
39.5931,68.3451
39.5931,68.3690
39.5931,68.3691
39.5931,68.4422
39.5931,68.5166
39.5931,68.5167
39.5931,72.5300
39.5931,72.5310
39.5429,79.0079
39.5423,79.0164
39.5423,79.0732
39.5399,79.0978
39.5350,79.1222
39.5162,79.1676
39.5094,79.1778
39.4746,79.2126
39.4644,79.2194
39.4190,79.2382
39.3946,79.2431
39.3700,79.2455
22.9356,79.2455
22.9110,79.2431
22.8866,79.2382
22.8412,79.2194
22.8397,79.2184
22.8310,79.2126
22.7962,79.1778
22.7894,79.1676
22.7706,79.1222
22.7657,79.0978
22.7633,79.0732
22.7633,78.3359
23.7595,78.3359
23.7733,78.3875
23.7936,78.4632
23.7936,78.4632
23.8595,78.5773
23.8595,78.5773
23.9527,78.6705
23.9527,78.6705
23.9527,78.6705
24.0668,78.7364
24.1941,78.7705
24.1941,78.7705
38.1259,78.7705
38.1259,78.7705
38.2532,78.7364
38.3673,78.6705
38.4605,78.5773
38.5264,78.4632
38.5605,78.3359
38.5605,66.9609
77.7595,66.9609
77.7845,67.0541
77.7936,67.0882
77.7936,67.0882
77.8595,67.2023
77.8595,67.2023
77.9527,67.2955
77.9527,67.2955
77.9527,67.2955
78.0668,67.3614
78.1941,67.3955
78.1941,67.3955
92.1259,67.3955
92.1259,67.3955
92.2532,67.3614
92.3673,67.2955
92.4605,67.2023
92.5264,67.0882
92.5605,66.9609
92.5605,53.0291
92.5264,52.9018
92.4605,52.7877
92.4605,52.7877
92.4605,52.7877
92.3673,52.6945
92.3673,52.6945
92.2532,52.6286
92.2532,52.6286
92.2532,52.6286
92.2532,52.6286
92.2532,52.6286
92.2191,52.6195
92.1259,52.5945
78.3259,52.5945
78.1941,52.5945
78.1259,52.6128
78.0668,52.6286
78.0668,52.6286
77.9527,52.6945
77.9527,52.6945
77.8595,52.7877
77.8595,52.7877
77.7936,52.9018
77.7936,52.9018
77.7595,53.0291
77.7595,66.9609
38.5605,66.9609
38.5605,66.3359
41.7595,66.3359
41.7752,66.3945
41.7936,66.4632
41.7936,66.4632
41.8595,66.5773
41.8595,66.5773
41.9527,66.6705
41.9527,66.6705
41.9527,66.6705
42.0668,66.7364
42.1941,66.7705
42.1941,66.7705
56.1259,66.7705
56.1259,66.7705
56.2532,66.7364
56.3673,66.6705
56.4605,66.5773
56.5264,66.4632
56.5605,66.3359
56.5605,60.3359
59.7595,60.3359
59.7845,60.4291
59.7936,60.4632
59.7936,60.4632
59.8595,60.5773
59.8595,60.5773
59.9527,60.6705
59.9527,60.6705
59.9527,60.6705
60.0668,60.7364
60.1941,60.7705
60.1941,60.7705
74.1259,60.7705
74.1259,60.7705
74.2532,60.7364
74.3673,60.6705
74.4605,60.5773
74.5264,60.4632
74.5605,60.3359
74.5605,52.3359
95.7595,52.3359
95.7778,52.4041
95.7936,52.4632
95.7936,52.4632
95.8595,52.5773
95.8595,52.5773
95.9527,52.6705
95.9527,52.6705
95.9527,52.6705
96.0668,52.7364
96.1941,52.7705
96.1941,52.7705
110.1259,52.7705
110.1259,52.7705
110.2532,52.7364
110.3673,52.6705
110.4605,52.5773
110.5264,52.4632
110.5605,52.3359
110.5605,38.4041
110.5264,38.2768
110.4605,38.1627
110.4605,38.1627
110.4605,38.1627
110.3673,38.0695
110.3673,38.0695
110.2532,38.0036
110.2532,38.0036
110.2532,38.0036
110.2532,38.0036
110.2532,38.0036
110.2191,37.9945
110.1259,37.9695
96.3259,37.9695
96.1941,37.9695
96.1259,37.9878
96.0668,38.0036
96.0668,38.0036
95.9527,38.0695
95.9527,38.0695
95.8595,38.1627
95.8595,38.1627
95.7936,38.2768
95.7936,38.2768
95.7595,38.4041
95.7595,52.3359
74.5605,52.3359
74.5605,49.9559
77.7595,49.9559
77.7845,50.0491
77.7936,50.0832
77.7936,50.0832
77.8595,50.1973
77.8595,50.1973
77.9527,50.2905
77.9527,50.2905
77.9527,50.2905
78.0668,50.3564
78.1941,50.3905
78.1941,50.3905
92.1259,50.3905
92.1259,50.3905
92.2532,50.3564
92.3673,50.2905
92.4605,50.1973
92.5264,50.0832
92.5605,49.9559
92.5605,36.0241
92.5264,35.8968
92.4605,35.7827
92.4605,35.7827
92.4605,35.7827
92.3673,35.6895
92.3673,35.6895
92.2532,35.6236
92.2532,35.6236
92.2532,35.6236
92.2532,35.6236
92.2532,35.6236
92.2191,35.6145
92.1259,35.5895
78.3259,35.5895
78.1941,35.5895
78.1259,35.6078
78.0668,35.6236
78.0668,35.6236
77.9527,35.6895
77.9527,35.6895
77.8595,35.7827
77.8595,35.7827
77.7936,35.8968
77.7936,35.8968
77.7595,36.0241
77.7595,49.9559
74.5605,49.9559
74.5605,46.4041
74.5264,46.2768
74.4605,46.1627
74.4605,46.1627
74.4605,46.1627
74.3673,46.0695
74.3673,46.0695
74.2532,46.0036
74.2532,46.0036
74.2532,46.0036
74.2532,46.0036
74.2532,46.0036
74.2191,45.9945
74.1259,45.9695
60.3259,45.9695
60.1941,45.9695
60.1259,45.9878
60.0668,46.0036
60.0668,46.0036
59.9527,46.0695
59.9527,46.0695
59.8595,46.1627
59.8595,46.1627
59.7936,46.2768
59.7936,46.2768
59.7595,46.4041
59.7595,60.3359
56.5605,60.3359
56.5605,52.4041
56.5264,52.2768
56.4605,52.1627
56.4605,52.1627
56.4605,52.1627
56.3673,52.0695
56.3673,52.0695
56.2532,52.0036
56.2532,52.0036
56.2532,52.0036
56.2532,52.0036
56.2532,52.0036
56.2191,51.9945
56.1259,51.9695
42.3259,51.9695
42.1941,51.9695
42.1259,51.9878
42.0668,52.0036
42.0668,52.0036
41.9527,52.0695
41.9527,52.0695
41.8595,52.1627
41.8595,52.1627
41.7936,52.2768
41.7936,52.2768
41.7595,52.4041
41.7595,66.3359
38.5605,66.3359
38.5605,64.4041
38.5264,64.2768
38.4605,64.1627
38.4605,64.1627
38.4605,64.1627
38.3673,64.0695
38.3673,64.0695
38.2532,64.0036
38.2532,64.0036
38.2532,64.0036
38.2532,64.0036
38.2532,64.0036
38.2191,63.9945
38.1259,63.9695
24.3259,63.9695
24.1941,63.9695
24.1259,63.9878
24.0668,64.0036
24.0668,64.0036
23.9527,64.0695
23.9527,64.0695
23.8595,64.1627
23.8595,64.1627
23.7936,64.2768
23.7936,64.2768
23.7595,64.4041
23.7595,78.3359
22.7633,78.3359
22.7633,61.3359
23.7595,61.3359
23.7845,61.4291
23.7936,61.4632
23.7936,61.4632
23.8595,61.5773
23.8595,61.5773
23.9527,61.6705
23.9527,61.6705
23.9527,61.6705
24.0668,61.7364
24.1941,61.7705
24.1941,61.7705
38.1259,61.7705
38.1259,61.7705
38.2532,61.7364
38.3673,61.6705
38.4605,61.5773
38.5264,61.4632
38.5605,61.3359
38.5605,49.3359
41.7595,49.3359
41.7739,49.3895
41.7936,49.4632
41.7936,49.4632
41.8595,49.5773
41.8595,49.5773
41.9527,49.6705
41.9527,49.6705
41.9527,49.6705
42.0668,49.7364
42.1941,49.7705
42.1941,49.7705
56.1259,49.7705
56.1259,49.7705
56.2532,49.7364
56.3673,49.6705
56.4605,49.5773
56.5264,49.4632
56.5605,49.3359
56.5605,43.3359
59.7595,43.3359
59.7845,43.4291
59.7936,43.4632
59.7936,43.4632
59.8595,43.5773
59.8595,43.5773
59.9527,43.6705
59.9527,43.6705
59.9527,43.6705
59.9527,43.6705
59.9527,43.6705
60.0329,43.7168
60.0668,43.7364
60.1941,43.7705
60.1941,43.7705
74.1259,43.7705
74.1259,43.7705
74.2532,43.7364
74.3673,43.6705
74.4605,43.5773
74.5264,43.4632
74.5605,43.3359
74.5605,35.3359
95.7595,35.3359
95.7778,35.4041
95.7936,35.4632
95.7936,35.4632
95.8595,35.5773
95.8595,35.5773
95.9527,35.6705
95.9527,35.6705
95.9527,35.6705
95.9527,35.6705
95.9527,35.6705
96.0329,35.7168
96.0668,35.7364
96.1941,35.7705
96.1941,35.7705
110.1259,35.7705
110.1259,35.7705
110.2532,35.7364
110.3673,35.6705
110.4605,35.5773
110.5264,35.4632
110.5605,35.3359
110.5605,21.4041
110.5264,21.2768
110.4605,21.1627
110.4605,21.1627
110.4605,21.1627
110.3673,21.0695
110.3673,21.0695
110.2532,21.0036
110.2532,21.0036
110.2532,21.0036
110.2532,21.0036
110.2532,21.0036
110.2191,20.9945
110.1259,20.9695
96.3259,20.9695
96.1941,20.9695
96.1259,20.9878
96.0668,21.0036
96.0668,21.0036
95.9527,21.0695
95.9527,21.0695
95.8595,21.1627
95.8595,21.1627
95.7936,21.2768
95.7936,21.2768
95.7595,21.4041
95.7595,35.3359
74.5605,35.3359
74.5605,32.9559
77.7595,32.9559
77.7845,33.0491
77.7936,33.0832
77.7936,33.0832
77.8595,33.1973
77.8595,33.1973
77.9527,33.2905
77.9527,33.2905
77.9527,33.2905
78.0668,33.3564
78.1941,33.3905
78.1941,33.3905
92.1259,33.3905
92.1259,33.3905
92.2532,33.3564
92.3673,33.2905
92.4605,33.1973
92.5264,33.0832
92.5605,32.9559
92.5605,19.0241
92.5264,18.8968
92.4605,18.7827
92.4605,18.7827
92.4605,18.7827
92.3673,18.6895
92.3673,18.6895
92.2532,18.6236
92.2532,18.6236
92.2532,18.6236
92.2532,18.6236
92.2532,18.6236
92.2191,18.6145
92.1259,18.5895
78.3259,18.5895
78.1941,18.5895
78.1259,18.6078
78.0668,18.6236
78.0668,18.6236
77.9527,18.6895
77.9527,18.6895
77.8595,18.7827
77.8595,18.7827
77.7936,18.8968
77.7936,18.8968
77.7595,19.0241
77.7595,32.9559
74.5605,32.9559
74.5605,29.4041
74.5264,29.2768
74.4605,29.1627
74.4605,29.1627
74.4605,29.1627
74.3673,29.0695
74.3673,29.0695
74.2532,29.0036
74.2532,29.0036
74.2532,29.0036
74.2532,29.0036
74.2532,29.0036
74.2191,28.9945
74.1259,28.9695
60.3259,28.9695
60.1941,28.9695
60.1259,28.9878
60.0668,29.0036
60.0668,29.0036
59.9527,29.0695
59.9527,29.0695
59.8595,29.1627
59.8595,29.1627
59.7936,29.2768
59.7936,29.2768
59.7595,29.4041
59.7595,43.3359
56.5605,43.3359
56.5605,35.4041
56.5264,35.2768
56.4605,35.1627
56.4605,35.1627
56.4605,35.1627
56.3673,35.0695
56.3673,35.0695
56.2532,35.0036
56.2532,35.0036
56.2532,35.0036
56.2532,35.0036
56.2532,35.0036
56.2191,34.9945
56.1259,34.9695
42.3259,34.9695
42.1941,34.9695
42.1259,34.9878
42.0668,35.0036
42.0668,35.0036
41.9527,35.0695
41.9527,35.0695
41.8595,35.1627
41.8595,35.1627
41.7936,35.2768
41.7936,35.2768
41.7595,35.4041
41.7595,49.3359
38.5605,49.3359
38.5605,47.4041
38.5264,47.2768
38.4605,47.1627
38.4605,47.1627
38.4605,47.1627
38.3673,47.0695
38.3673,47.0695
38.2532,47.0036
38.2532,47.0036
38.2532,47.0036
38.2532,47.0036
38.2532,47.0036
38.2191,46.9945
38.1259,46.9695
24.3259,46.9695
24.1941,46.9695
24.1259,46.9878
24.0668,47.0036
24.0668,47.0036
23.9527,47.0695
23.9527,47.0695
23.8595,47.1627
23.8595,47.1627
23.7936,47.2768
23.7936,47.2768
23.7595,47.4041
23.7595,61.3359
22.7633,61.3359
22.7633,44.3359
23.7595,44.3359
23.7845,44.4291
23.7936,44.4632
23.7936,44.4632
23.8595,44.5773
23.8595,44.5773
23.9527,44.6705
23.9527,44.6705
23.9527,44.6705
24.0668,44.7364
24.1941,44.7705
24.1941,44.7705
38.1259,44.7705
38.1259,44.7705
38.2532,44.7364
38.3673,44.6705
38.4605,44.5773
38.5264,44.4632
38.5605,44.3359
38.5605,32.3359
41.7595,32.3359
41.7739,32.3895
41.7936,32.4632
41.7936,32.4632
41.8595,32.5773
41.8595,32.5773
41.9527,32.6705
41.9527,32.6705
41.9527,32.6705
42.0668,32.7364
42.1941,32.7705
42.1941,32.7705
56.1259,32.7705
56.1259,32.7705
56.2532,32.7364
56.3673,32.6705
56.4605,32.5773
56.5264,32.4632
56.5605,32.3359
56.5605,26.3359
59.7595,26.3359
59.7845,26.4291
59.7936,26.4632
59.7936,26.4632
59.8595,26.5773
59.8595,26.5773
59.9527,26.6705
59.9527,26.6705
59.9527,26.6705
60.0668,26.7364
60.1941,26.7705
60.1941,26.7705
74.1259,26.7705
74.1259,26.7705
74.2532,26.7364
74.3673,26.6705
74.4605,26.5773
74.5264,26.4632
74.5605,26.3359
74.5605,12.4041
74.5264,12.2768
74.4605,12.1627
74.4605,12.1627
74.4605,12.1627
74.3673,12.0695
74.3673,12.0695
74.2532,12.0036
74.2532,12.0036
74.2532,12.0036
74.2532,12.0036
74.2532,12.0036
74.2191,11.9945
74.1259,11.9695
60.3259,11.9695
60.1941,11.9695
60.1259,11.9878
60.0668,12.0036
60.0668,12.0036
59.9527,12.0695
59.9527,12.0695
59.8595,12.1627
59.8595,12.1627
59.7936,12.2768
59.7936,12.2768
59.7595,12.4041
59.7595,26.3359
56.5605,26.3359
56.5605,18.4041
56.5264,18.2768
56.4605,18.1627
56.4605,18.1627
56.4605,18.1627
56.3673,18.0695
56.3673,18.0695
56.2532,18.0036
56.2532,18.0036
56.2532,18.0036
56.2532,18.0036
56.2532,18.0036
56.2155,17.9935
56.1259,17.9695
42.3259,17.9695
42.1941,17.9695
42.1259,17.9878
42.0668,18.0036
42.0668,18.0036
41.9527,18.0695
41.9527,18.0695
41.8595,18.1627
41.8595,18.1627
41.7936,18.2768
41.7936,18.2768
41.7595,18.4041
41.7595,32.3359
38.5605,32.3359
38.5605,30.4041
38.5264,30.2768
38.4605,30.1627
38.4605,30.1627
38.4605,30.1627
38.3673,30.0695
38.3673,30.0695
38.2532,30.0036
38.2532,30.0036
38.2532,30.0036
38.2532,30.0036
38.2532,30.0036
38.2191,29.9945
38.1259,29.9695
24.3259,29.9695
24.1941,29.9695
24.1259,29.9878
24.0668,30.0036
24.0668,30.0036
23.9527,30.0695
23.9527,30.0695
23.8595,30.1627
23.8595,30.1627
23.7936,30.2768
23.7936,30.2768
23.7595,30.4041
23.7595,44.3359
22.7633,44.3359
22.7633,43.7520
22.7636,43.7480
22.7633,43.6775
22.7633,43.6770
22.7633,43.6062
22.7630,43.6023
22.7601,42.7695
22.7131,29.5733
22.7329,29.5051
22.7864,29.4585
22.8394,29.4469
39.7157,29.4848
39.7183,29.4850
39.7250,29.4850
39.7250,29.4850
39.7902,29.4849
39.8556,29.4851
39.8556,29.4851
39.8624,29.4851
39.8649,29.4849
39.8784,29.4849
39.8784,29.4849
40.0508,29.4545
40.0508,29.4545
40.2153,29.3946
40.3669,29.3071
40.5010,29.1946
40.6135,29.0605
40.7010,28.9089
40.7609,28.7444
40.7646,28.7234
40.7913,28.5720
40.7913,28.5720
40.7913,28.5586
40.7915,28.5561
40.7915,28.5493
40.7915,28.5493
40.7913,28.4839
40.7914,28.4186
40.7914,28.4186
40.7914,28.4119
40.7912,28.4093
40.7877,26.7705
40.7679,17.6036
40.7877,17.5354
40.8413,17.4888
40.8939,17.4773
57.7228,17.4773
57.7229,17.4773
57.7312,17.4773
57.7312,17.4773
57.7971,17.4773
57.7971,17.4773
57.8743,17.4773
57.8744,17.4773
57.8847,17.4773
57.8847,17.4773
57.8847,17.4773
57.8847,17.4773
57.9660,17.4630
58.0571,17.4469
58.1544,17.4115
58.2216,17.3870
58.2216,17.3870
58.2216,17.3870
58.3732,17.2995
58.5073,17.1870
58.6198,17.0529
58.7073,16.9013
58.7075,16.9008
58.7563,16.7667
58.7672,16.7368
58.7976,16.5644
58.7976,16.5508
58.7979,16.5469
58.7978,16.5410
58.7978,16.5410
58.7976,16.4758
58.7976,16.4109
58.7976,16.4109
58.7976,16.4050
58.7974,16.4011
58.7809,11.6464
58.8007,11.5782
58.8542,11.5315
58.9068,11.5200
75.4334,11.5068
Z" /> 
</g> 
</svg>
